<?xml version="1.0" standalone="no"?>
<!DOCTYPE svg PUBLIC "-//W3C//DTD SVG 20010904//EN"
 "http://www.w3.org/TR/2001/REC-SVG-20010904/DTD/svg10.dtd">
<svg version="1.0" xmlns="http://www.w3.org/2000/svg"
 width="1280.000000pt" height="720.000000pt" viewBox="0 0 1280.000000 720.000000"
 preserveAspectRatio="xMidYMid meet">
<metadata>
Created by potrace 1.16, written by Peter Selinger 2001-2019
</metadata>
<g transform="translate(0.000000,720.000000) scale(0.100000,-0.100000)"
fill="#000000" stroke="none">
<path d="M3715 5388 c-142 -53 -224 -208 -225 -423 0 -107 20 -186 86 -341 75
-178 168 -343 281 -496 61 -84 67 -58 12 59 -76 163 -155 367 -186 478 -38
139 -40 296 -4 369 46 93 158 134 237 85 60 -37 119 -128 160 -249 16 -45 19
-84 19 -215 0 -184 -13 -255 -81 -464 -24 -74 -44 -136 -44 -138 0 -11 25 1
41 20 156 181 250 536 219 824 -19 178 -66 298 -152 390 -73 77 -140 106 -247
110 -47 1 -99 -2 -116 -9z"/>
<path d="M4473 5020 c-65 -39 -85 -131 -37 -169 80 -63 167 21 128 122 -4 12
2 13 34 7 52 -9 96 -41 116 -85 63 -133 8 -232 -311 -557 -112 -114 -203 -211
-203 -217 0 -23 18 -18 38 9 12 16 100 98 195 183 245 219 322 316 346 436 23
119 -22 221 -121 272 -51 26 -142 26 -185 -1z"/>
<path d="M2325 5016 c-139 -34 -235 -107 -292 -223 -34 -69 -38 -85 -41 -172
-3 -82 0 -106 21 -169 33 -97 78 -169 156 -254 76 -83 151 -135 275 -193 261
-123 554 -183 931 -192 235 -5 373 6 468 39 48 16 45 32 -8 34 -22 2 -96 5
-165 8 -69 3 -183 14 -255 25 -471 70 -786 192 -968 373 -135 136 -154 277
-49 383 114 116 307 104 572 -36 232 -123 565 -378 831 -635 69 -67 99 -87 99
-66 -1 14 -127 183 -219 291 -154 182 -375 385 -613 562 -180 135 -295 192
-450 224 -82 18 -223 18 -293 1z"/>
<path d="M5673 4916 c-103 -33 -167 -89 -210 -181 -24 -52 -28 -75 -31 -173
-6 -153 17 -229 95 -313 77 -83 131 -102 288 -103 134 -1 178 12 248 73 36 32
97 139 97 171 0 13 -20 23 -82 40 -46 13 -91 27 -100 32 -14 7 -19 3 -24 -19
-11 -48 -46 -95 -80 -109 -75 -31 -156 -7 -191 58 -14 26 -18 56 -18 143 0 98
3 114 23 148 30 48 68 67 133 67 46 0 55 -4 89 -37 20 -21 39 -44 41 -52 4
-11 23 -10 107 10 l103 24 -31 62 c-35 69 -82 116 -149 147 -58 26 -243 33
-308 12z"/>
<path d="M6492 4908 c-69 -23 -139 -78 -177 -138 -43 -68 -58 -142 -53 -261 4
-96 8 -114 37 -173 38 -78 101 -137 180 -167 46 -18 77 -22 176 -23 111 -1
124 1 181 27 72 34 145 104 173 167 11 25 25 82 31 127 25 189 -44 353 -180
423 -85 45 -263 53 -368 18z m243 -178 c53 -33 70 -79 70 -195 0 -157 -38
-210 -152 -210 -104 0 -154 59 -161 190 -5 95 11 151 58 197 35 35 42 38 95
38 40 0 67 -6 90 -20z"/>
<path d="M8275 4911 c-154 -52 -232 -161 -242 -341 -9 -145 26 -250 109 -332
71 -70 135 -91 278 -92 87 -1 128 3 167 17 160 56 244 208 229 414 -13 183
-100 297 -258 339 -73 19 -220 17 -283 -5z m233 -181 c55 -34 75 -94 70 -209
-4 -112 -23 -156 -78 -183 -78 -39 -169 -13 -209 61 -32 58 -35 204 -5 266 39
80 145 112 222 65z"/>
<path d="M9169 4915 c-69 -22 -140 -74 -177 -129 -50 -75 -64 -139 -60 -269 3
-98 7 -120 32 -174 37 -81 112 -153 186 -179 41 -14 83 -18 170 -18 105 0 120
2 172 27 31 15 71 44 89 64 33 38 79 127 79 153 0 11 -29 25 -100 47 l-100 30
-6 -26 c-25 -103 -135 -154 -221 -101 -55 33 -68 70 -68 195 0 98 3 114 23
148 30 48 68 67 133 67 46 0 55 -4 89 -37 20 -21 39 -44 41 -52 4 -11 23 -10
107 10 l103 24 -31 62 c-35 69 -82 116 -149 147 -60 27 -242 33 -312 11z"/>
<path d="M7170 4535 l0 -385 110 0 110 0 2 213 3 212 144 -212 145 -213 108 0
108 0 0 385 0 385 -110 0 -110 0 0 -212 0 -212 -142 212 -143 211 -112 1 -113
0 0 -385z"/>
<path d="M9780 4535 l0 -385 320 0 320 0 0 90 0 90 -202 2 -203 3 0 75 0 75
183 3 182 2 0 75 0 75 -185 0 -185 0 0 60 0 60 200 0 200 0 0 80 0 80 -315 0
-315 0 0 -385z"/>
<path d="M4810 4612 c-19 -9 -41 -29 -49 -43 -29 -51 13 -119 73 -119 34 0 86
32 86 53 0 7 4 19 10 27 14 22 47 -14 64 -71 52 -173 -110 -273 -509 -313 -88
-9 -181 -21 -207 -27 -61 -14 -64 -34 -4 -25 24 4 127 11 228 16 313 15 438
60 520 189 24 38 28 55 28 113 0 103 -40 168 -122 203 -48 19 -75 19 -118 -3z"/>
<path d="M3870 4503 c-19 -24 -21 -37 -17 -83 5 -56 83 -270 98 -270 12 0 48
123 55 185 9 74 -2 120 -38 160 -37 43 -69 45 -98 8z"/>
<path d="M3253 4240 c-39 -23 -49 -56 -33 -104 12 -38 66 -91 109 -108 48 -18
165 -36 281 -42 l115 -6 -60 56 c-217 201 -328 256 -412 204z"/>
<path d="M4100 4110 c-11 -11 -20 -30 -20 -42 0 -14 -21 -42 -60 -78 -62 -58
-79 -101 -44 -114 28 -11 34 -7 70 52 42 67 59 82 91 82 35 0 66 36 58 68 -12
52 -60 67 -95 32z"/>
<path d="M9970 3798 c-12 -24 -32 -58 -42 -75 l-20 -33 54 0 c52 1 55 2 133
75 l80 74 -91 1 -90 0 -24 -42z"/>
<path d="M3675 3799 c-114 -17 -260 -74 -359 -140 -297 -200 -413 -535 -241
-702 55 -53 108 -71 202 -65 95 6 146 29 218 102 99 99 185 277 231 476 40
175 28 230 -21 93 -41 -116 -98 -235 -151 -313 -118 -176 -248 -217 -349 -111
-25 27 -30 41 -33 97 -6 92 34 172 138 275 110 108 301 230 414 264 41 12 62
36 29 34 -10 -1 -45 -5 -78 -10z"/>
<path d="M3689 3728 c-116 -58 -186 -150 -164 -217 14 -46 94 -35 134 20 18
24 111 213 111 225 0 9 -21 2 -81 -28z"/>
<path d="M5673 3636 c-103 -33 -167 -89 -210 -181 -24 -52 -28 -75 -31 -173
-6 -153 17 -229 95 -313 77 -83 131 -102 288 -103 134 -1 178 12 248 73 36 32
97 139 97 171 0 13 -20 23 -82 40 -46 13 -91 27 -100 32 -14 7 -19 3 -24 -19
-11 -48 -46 -95 -80 -109 -75 -31 -156 -7 -191 58 -14 26 -18 56 -18 143 0 98
3 114 23 148 30 48 68 67 133 67 46 0 55 -4 89 -37 20 -21 39 -44 41 -52 4
-11 23 -10 107 10 l103 24 -31 62 c-35 69 -82 116 -149 147 -58 26 -243 33
-308 12z"/>
<path d="M7397 3635 c-105 -29 -186 -105 -229 -215 -31 -79 -30 -250 1 -332
27 -70 98 -151 161 -183 64 -32 167 -49 256 -42 226 20 344 156 344 399 0 132
-27 206 -104 284 -50 49 -73 64 -129 82 -78 26 -220 29 -300 7z m223 -188 c59
-39 75 -79 74 -187 -1 -154 -44 -215 -153 -215 -69 0 -98 14 -131 62 -23 34
-25 46 -25 147 0 126 13 163 68 196 46 28 124 27 167 -3z"/>
<path d="M9053 3636 c-103 -33 -167 -89 -210 -181 -24 -53 -28 -75 -31 -178
-5 -153 17 -223 96 -309 77 -82 131 -102 287 -102 135 -1 178 12 250 75 36 32
95 136 95 169 0 11 -30 25 -100 47 l-100 30 -6 -26 c-25 -103 -135 -154 -221
-101 -55 33 -68 70 -68 195 0 98 3 114 23 148 30 48 68 67 133 67 46 0 55 -4
89 -37 20 -21 39 -44 41 -52 4 -11 23 -10 107 10 l103 24 -31 62 c-35 69 -82
116 -149 147 -58 26 -243 33 -308 12z"/>
<path d="M4030 3255 l0 -385 95 0 95 0 0 287 c0 157 2 284 4 282 4 -3 146
-556 146 -566 0 -1 39 -3 88 -3 l87 0 70 277 70 276 5 -274 5 -274 98 -3 97
-3 0 386 0 385 -155 0 c-116 0 -157 -3 -160 -12 -2 -7 -27 -105 -55 -218 -56
-223 -61 -240 -65 -225 -2 6 -27 102 -55 215 -28 113 -54 213 -56 223 -5 15
-21 17 -160 17 l-154 0 0 -385z"/>
<path d="M5050 3255 l0 -385 115 0 115 0 0 385 0 385 -115 0 -115 0 0 -385z"/>
<path d="M6290 3255 l0 -385 115 0 115 0 0 160 0 160 130 0 130 0 0 -160 0
-161 118 3 117 3 3 383 2 382 -120 0 -120 0 0 -135 0 -135 -130 0 -130 0 0
135 0 135 -115 0 -115 0 0 -385z"/>
<path d="M8096 3268 c-77 -205 -141 -379 -144 -385 -3 -10 24 -13 116 -13
l120 0 17 65 18 65 137 0 137 0 18 -65 17 -65 119 0 c89 0 119 3 119 13 0 6
-52 152 -116 322 -64 171 -125 337 -137 370 l-22 60 -130 3 -130 2 -139 -372z
m284 115 c7 -27 24 -81 37 -122 13 -41 23 -78 23 -82 0 -5 -36 -9 -81 -9 -61
0 -80 3 -77 13 3 6 20 65 39 129 19 65 36 118 39 118 3 0 12 -21 20 -47z"/>
<path d="M9735 3264 c-77 -206 -141 -380 -143 -385 -2 -5 48 -9 117 -9 l120 0
19 63 18 62 135 3 136 3 18 -66 19 -65 123 0 c68 0 123 1 123 3 0 1 -64 173
-143 382 l-142 380 -130 3 -130 2 -140 -376z m334 -36 l18 -58 -85 0 c-71 0
-83 2 -78 15 3 9 20 64 37 123 17 59 34 111 37 117 3 5 16 -24 29 -65 13 -41
32 -101 42 -132z"/>
<path d="M10490 3255 l0 -385 110 0 110 0 2 213 3 212 144 -212 145 -213 108
0 108 0 0 385 0 385 -110 0 -110 0 0 -212 0 -212 -142 212 -143 211 -112 1
-113 0 0 -385z"/>
</g>
</svg>
